PathFileType        4      (X/Y/Z)      C:\Users\pc\Desktop\IMUTRC\Sujet_03\Sujet_03_Tpose.trc         
DataRate	CameraRate	NumFrames	NumMarkers	Units	OrigDataRate	OrigDataStartFrame	OrigNumFrames
60.0	60.0	4	64	mm	60.0	16	123
Frame#	Time	pHipOrigin			pRightASI			pLeftASI			pRightCSI			pLeftCSI			pRightIschialTub			pLeftIschialTub			pSacrum			pL5SpinalProcess			pL3SpinalProcess			pT12SpinalProcess			pIJ			pT4SpinalProcess			pT8SpinalProcess			pPX			pC7SpinalProcess			pTopOfHead			pRightAuricularis			pLeftAuricularis			pBackOfHead			pRightAcromion			pLeftAcromion			pRightArmLatEpicondyle			pRightArmMedEpicondyle			pLeftArmLatEpicondyle			pLeftArmMedEpicondyle			pRightUlnarStyloid			pRightRadialStyloid			pRightOlecranon			pLeftUlnarStyloid			pLeftRadialStyloid			pLeftOlecranon			pRightTopOfHand			pRightPinky			pRightBallHand			pLeftTopOfHand			pLeftPinky			pLeftBallHand			pRightGreaterTrochanter			pRightKneeLatEpicondyle			pRightKneeMedEpicondyle			pRightPatella			pLeftGreaterTrochanter			pLeftKneeLatEpicondyle			pLeftKneeMedEpicondyle			pLeftPatella			pRightTibialTub			pRightLatMalleolus			pRightMedMalleolus			pLeftTibialTub			pLeftLatMalleolus			pLeftMedMalleolus			pRightHeelFoot			pRightFirstMetatarsal			pRightFifthMetatarsal			pRightPivotFoot			pRightHeelCenter			pRightToe			pLeftHeelFoot			pLeftFirstMetatarsal			pLeftFifthMetatarsal			pLeftPivotFoot			pLeftHeelCenter			pLeftToe			
		X1	Y1	Z1	X2	Y2	Z2	X3	Y3	Z3	X4	Y4	Z4	X5	Y5	Z5	X6	Y6	Z6	X7	Y7	Z7	X8	Y8	Z8	X9	Y9	Z9	X10	Y10	Z10	X11	Y11	Z11	X12	Y12	Z12	X13	Y13	Z13	X14	Y14	Z14	X15	Y15	Z15	X16	Y16	Z16	X17	Y17	Z17	X18	Y18	Z18	X19	Y19	Z19	X20	Y20	Z20	X21	Y21	Z21	X22	Y22	Z22	X23	Y23	Z23	X24	Y24	Z24	X25	Y25	Z25	X26	Y26	Z26	X27	Y27	Z27	X28	Y28	Z28	X29	Y29	Z29	X30	Y30	Z30	X31	Y31	Z31	X32	Y32	Z32	X33	Y33	Z33	X34	Y34	Z34	X35	Y35	Z35	X36	Y36	Z36	X37	Y37	Z37	X38	Y38	Z38	X39	Y39	Z39	X40	Y40	Z40	X41	Y41	Z41	X42	Y42	Z42	X43	Y43	Z43	X44	Y44	Z44	X45	Y45	Z45	X46	Y46	Z46	X47	Y47	Z47	X48	Y48	Z48	X49	Y49	Z49	X50	Y50	Z50	X51	Y51	Z51	X52	Y52	Z52	X53	Y53	Z53	X54	Y54	Z54	X55	Y55	Z55	X56	Y56	Z56	X57	Y57	Z57	X58	Y58	Z58	X59	Y59	Z59	X60	Y60	Z60	X61	Y61	Z61	X62	Y62	Z62	X63	Y63	Z63	X64	Y64	Z64	
16	0.25	-385.67318	985.18893	-765.6148599999999	-303.99919	1083.65624	-634.2486899999999	-324.40336	1083.19772	-907.9855199999998	-348.47569	1153.23675	-655.0540599999999	-365.32633	1152.83555	-881.0474299999998	-440.06519	929.65062	-704.6316099999999	-448.49051	929.47867	-817.5996399999999	-452.6172	1009.20395	-760.6857599999998	-413.471	1100.85077	-763.7807699999998	-397.59472	1216.16871	-763.8953999999999	-394.27044	1322.43087	-762.6344699999999	-220.14723	1535.81492	-769.9134899999999	-379.99899	1523.37755	-759.4248299999999	-391.8059	1428.69303	-760.8003899999999	-230.86515	1405.82432	-772.1487799999999	-371.45904	1579.14512	-757.0749099999999	-282.33409	1834.02529	-760.3418699999999	-276.02943	1729.48258	-692.3661799999999	-307.15152	1735.67261	-833.1893399999999	-346.75624	1737.33475	-750.3690499999999	-344.11975	1556.33372	-545.8115199999999	-382.80743	1580.52068	-967.4212599999998	-277.29036	1483.6582	-303.3114099999999	-219.97528	1474.60241	-320.8498299999999	-407.85412	1496.6114	-1221.38438	-347.61597	1489.84822	-1222.588	-148.10217	1433.67945	-79.43869999999991	-180.48519	1471.96592	-59.836939999999906	-236.82592	1461.01874	-327.4410599999999	-390.20107	1443.13643	-1474.48778	-433.2447	1475.34751	-1477.18159	-357.99	1478.27058	-1214.04805	-126.15049	1435.68547	137.3842500000001	-106.14753	1417.1727	41.15223000000009	-131.76737	1445.60098	-32.21107999999992	-365.84216	1470.01721	-1681.56717	-345.66726	1445.88756	-1586.6534	-378.39417	1461.53457	-1512.25842	-364.58123	951.54498	-602.2095599999999	-398.33982	541.11168	-631.03905	-413.70026	541.68483	-709.50339	-362.5752	541.5702	-681.47632	-403.2116	950.8572000000001	-929.4786699999999	-435.19341	541.39826	-888.21182	-424.30355	542.25798	-809.00237	-385.04272	540.93974	-852.046	-350.71098	500.64724000000007	-683.88355	-435.59462	89.75542000000004	-635.39499	-448.26125	90.09931000000005	-701.07808	-372.20414	501.90817000000004	-853.59351	-459.95353	89.12495000000006	-871.4185	-450.61117	89.69810000000004	-805.16226	-477.7212	4.038423696674052E-14	-659.52464	-320.21936	6.247340000000045	-730.59534	-304.68697	7.90948000000004	-650.46886	-289.89968	8.024110000000043	-696.03435	-438.23111	2.579180000000041	-667.20486	-207.99643	11.405700000000044	-711.96794	-492.62312	5.092688509505372E-14	-831.69915	-320.10473	4.986410000000051	-820.40807	-333.63109	4.699840000000055	-900.93576	-303.88456	5.502250000000053	-863.39439	-452.90377	2.0633400000000517	-838.40501	-221.52279	7.794850000000054	-877.26464	
17	0.267	-385.7305	985.18893	-765.6721699999999	-303.99919	1083.65624	-634.3633199999999	-324.57531	1083.19772	-908.0428299999999	-348.41838	1153.23675	-655.1113799999999	-365.44096	1152.83555	-881.0474299999998	-440.06519	929.65062	-704.6889299999999	-448.54783	929.47867	-817.6569499999999	-452.67451	1009.20395	-760.6284399999998	-413.52831	1100.85077	-763.8380899999999	-397.65203	1216.16871	-763.8953999999999	-394.32776	1322.43087	-762.6344699999999	-220.14723	1535.81492	-769.9134899999999	-380.0563	1523.43486	-759.4248299999999	-391.86321	1428.69303	-760.8003899999999	-230.92246	1405.82432	-772.1487799999999	-371.51636	1579.14512	-757.0749099999999	-282.27678	1834.02529	-760.3418699999999	-276.02943	1729.42526	-692.3661799999999	-307.09421	1735.67261	-833.1893399999999	-346.69893	1737.33475	-750.4263599999999	-344.11975	1556.39103	-545.8115199999999	-382.80743	1580.52068	-967.4212599999998	-277.23305	1483.6582	-303.3114099999999	-219.97528	1474.60241	-320.9071399999999	-407.73949	1496.6114	-1221.38438	-347.50134	1489.84822	-1222.588	-148.04486	1433.67945	-79.49601999999992	-180.37056	1471.96592	-59.89425999999991	-236.7686	1461.07605	-327.4410599999999	-390.02913	1443.07912	-1474.48778	-433.01544	1475.29019	-1477.23891	-357.87537	1478.21326	-1214.04805	-126.03586	1435.68547	137.3269300000001	-106.0329	1417.1727	41.03760000000008	-131.65274	1445.60098	-32.26838999999991	-365.44096	1469.90258	-1681.56717	-345.38068	1445.77293	-1586.59608	-378.16491	1461.47726	-1512.25842	-364.58123	951.54498	-602.2095599999999	-398.45445	541.11168	-631.03905	-413.75757	541.68483	-709.50339	-362.63252	541.51289	-681.47632	-403.32623	950.8572000000001	-929.5359899999999	-435.30804	541.39826	-888.26913	-424.47549	542.3153	-809.00237	-385.15735	540.93974	-852.046	-350.7683	500.64724000000007	-683.88355	-435.59462	89.75542000000004	-635.39499	-448.26125	90.09931000000005	-701.07808	-372.31877	501.96548000000007	-853.65082	-459.89621	89.12495000000006	-871.4185	-450.61117	89.75542000000004	-805.21958	-477.7212	4.038423696674052E-14	-659.52464	-320.21936	6.247340000000045	-730.59534	-304.68697	7.85217000000004	-650.46886	-289.89968	7.966800000000043	-696.03435	-438.23111	2.579180000000041	-667.20486	-207.99643	11.348390000000045	-711.96794	-492.62312	5.092688509505372E-14	-831.69915	-320.10473	4.986410000000051	-820.40807	-333.63109	4.699840000000055	-900.93576	-303.88456	5.502250000000053	-863.39439	-452.90377	2.0633400000000517	-838.40501	-221.52279	7.794850000000054	-877.26464	
18	0.283	-385.78781	985.18893	-765.7294899999999	-303.94188	1083.65624	-634.4206399999999	-324.74725	1083.25504	-908.1574599999999	-348.36106	1153.23675	-655.1686999999998	-365.6129	1152.89286	-881.1047499999999	-440.06519	929.65062	-704.6889299999999	-448.66246	929.47867	-817.6569499999999	-452.73183	1009.26127	-760.6284399999998	-413.58563	1100.85077	-763.8380899999999	-397.70935	1216.16871	-763.8953999999999	-394.32776	1322.43087	-762.6917899999999	-220.20454	1535.81492	-769.9707999999999	-380.0563	1523.43486	-759.4821399999998	-391.86321	1428.69303	-760.8003899999999	-230.97978	1405.82432	-772.2060899999999	-371.51636	1579.14512	-757.1322199999998	-282.10483	1834.02529	-760.3418699999999	-275.97212	1729.42526	-692.3661799999999	-306.97958	1735.67261	-833.2466499999999	-346.64161	1737.39206	-750.4263599999999	-344.17706	1556.39103	-545.8688299999999	-382.80743	1580.52068	-967.4785699999999	-277.23305	1483.6582	-303.3114099999999	-219.97528	1474.60241	-320.96445999999986	-407.56754	1496.6114	-1221.4417	-347.32939	1489.79091	-1222.588	-147.98754	1433.67945	-79.55332999999992	-180.31325	1471.96592	-59.95157999999991	-236.7686	1461.07605	-327.4983699999999	-389.79987	1442.96449	-1474.5451	-432.78618	1475.23288	-1477.23891	-357.76074	1478.21326	-1214.04805	-125.92123	1435.68547	137.2696200000001	-105.97559	1417.23002	40.980280000000086	-131.59543	1445.60098	-32.38301999999992	-365.09707	1469.67332	-1681.56717	-345.0941	1445.54367	-1586.59608	-377.87833	1461.30531	-1512.25842	-364.63855	951.54498	-602.2668699999999	-398.51176	541.11168	-631.03905	-413.81489	541.62752	-709.56071	-362.68983	541.51289	-681.47632	-403.44086	950.9145100000001	-929.5932999999999	-435.47999	541.45557	-888.26913	-424.64744	542.3153	-809.05969	-385.32929	540.99705	-852.10331	-350.82561	500.64724000000007	-683.88355	-435.59462	89.75542000000004	-635.39499	-448.26125	90.04199000000004	-701.07808	-372.49071	501.96548000000007	-853.65082	-459.89621	89.18227000000006	-871.4185	-450.61117	89.75542000000004	-805.21958	-477.7212	4.038423696674052E-14	-659.52464	-320.21936	6.247340000000045	-730.59534	-304.68697	7.85217000000004	-650.46886	-289.89968	7.966800000000043	-696.03435	-438.23111	2.579180000000041	-667.20486	-207.99643	11.348390000000045	-711.96794	-492.62312	5.092688509505372E-14	-831.69915	-320.10473	4.986410000000051	-820.40807	-333.63109	4.699840000000055	-900.93576	-303.88456	5.502250000000053	-863.4517	-452.90377	2.0633400000000517	-838.40501	-221.52279	7.794850000000054	-877.26464	
19	0.3	-385.84513	985.18893	-765.7294899999999	-303.82725	1083.59893	-634.5352699999999	-324.9192	1083.25504	-908.2147799999999	-348.36106	1153.17944	-655.2260099999999	-365.72753	1152.89286	-881.1620599999999	-440.06519	929.65062	-704.6889299999999	-448.77709	929.47867	-817.6569499999999	-452.78914	1009.26127	-760.6284399999998	-413.64294	1100.85077	-763.8380899999999	-397.70935	1216.16871	-763.9527199999999	-394.38507	1322.43087	-762.6917899999999	-220.20454	1535.81492	-770.0281199999998	-380.0563	1523.43486	-759.4821399999998	-391.86321	1428.69303	-760.8577099999999	-230.97978	1405.82432	-772.2634099999999	-371.51636	1579.14512	-757.1322199999998	-281.9902	1833.96797	-760.3991799999999	-275.9148	1729.36795	-692.4234999999999	-306.86495	1735.67261	-833.3039699999999	-346.5843	1737.39206	-750.4836799999999	-344.17706	1556.44835	-545.8688299999999	-382.75011	1580.52068	-967.5358899999999	-277.23305	1483.71551	-303.3687299999999	-219.97528	1474.65973	-320.96445999999986	-407.3956	1496.55409	-1221.49901	-347.21476	1489.79091	-1222.588	-147.93022	1433.67945	-79.61064999999992	-180.25593	1472.02323	-59.95157999999991	-236.7686	1461.13337	-327.5556899999999	-389.57061	1442.84986	-1474.5451	-432.55692	1475.11825	-1477.29622	-357.64611	1478.15595	-1214.10537	-125.8066	1435.74279	137.21230000000008	-105.91827	1417.28733	40.922970000000085	-131.53811	1445.6583	-32.38301999999992	-364.75318	1469.44406	-1681.62449	-344.80753	1445.37172	-1586.59608	-377.64907	1461.19068	-1512.31574	-364.63855	951.54498	-602.3241899999999	-398.62639	541.11168	-631.03905	-413.8722	541.62752	-709.50339	-362.74715	541.51289	-681.419	-403.6128	950.9145100000001	-929.5932999999999	-435.65193	541.45557	-888.32645	-424.76207	542.37261	-809.05969	-385.44392	540.99705	-852.10331	-350.88293	500.64724000000007	-683.82624	-435.59462	89.75542000000004	-635.39499	-448.26125	90.04199000000004	-701.07808	-372.60534	502.0228000000001	-853.70814	-459.89621	89.18227000000006	-871.4185	-450.61117	89.75542000000004	-805.21958	-477.7212	4.038423696674052E-14	-659.52464	-320.21936	6.1900300000000446	-730.59534	-304.68697	7.79485000000004	-650.46886	-289.89968	7.966800000000043	-696.03435	-438.23111	2.521860000000041	-667.20486	-207.99643	11.291070000000044	-711.96794	-492.62312	0.05732000000005093	-831.69915	-320.10473	4.986410000000051	-820.40807	-333.63109	4.699840000000055	-900.93576	-303.88456	5.502250000000053	-863.4517	-452.90377	2.0633400000000517	-838.40501	-221.52279	7.737540000000053	-877.26464	
